<svg width="138" height="64" viewBox="0 0 138 64" fill="none" xmlns="http://www.w3.org/2000/svg">
<path d="M1.44141 37V12.3906H4.5V33.9766H14.6602V37H1.44141ZM16.6289 31.7969V23.1133C16.6289 22.0117 17.1211 20.9336 18.1055 19.8789C19.3242 18.6133 20.8477 17.9805 22.6758 17.9805V20.8281C21.293 20.8281 20.332 21.4023 19.793 22.5508C19.6289 22.9023 19.5469 23.2539 19.5469 23.6055V31.3398C19.5469 32.207 19.9453 32.9453 20.7422 33.5547C21.3047 33.9766 21.9492 34.1875 22.6758 34.1875V37.0352C20.4492 37.0352 18.7266 36.1328 17.5078 34.3281C16.9219 33.4375 16.6289 32.5938 16.6289 31.7969ZM24.1875 37.0352V34.1875C25.4297 34.1875 26.3203 33.625 26.8594 32.5C27.0469 32.125 27.1406 31.7617 27.1406 31.4102V23.6055C27.1406 22.6445 26.7305 21.8828 25.9102 21.3203C25.3945 20.9922 24.8086 20.8281 24.1523 20.8281V17.9805C26.3086 17.9805 27.9727 18.8594 29.1445 20.6172C29.7305 21.4844 30.0234 22.3164 30.0234 23.1133V31.7969C30.0234 32.9453 29.5312 34.0586 28.5469 35.1367C27.3984 36.3789 25.9453 37.0117 24.1875 37.0352ZM32.168 22.4102V19.5273H34.4883V17.4883C34.4883 16.1758 34.9219 14.9805 35.7891 13.9023C36.75 12.7773 37.9922 12.2031 39.5156 12.1797H40.8164L40.1484 15.0273H39.4805C38.1445 15.0977 37.4648 15.918 37.4414 17.4883V19.5625L39.832 19.5273V22.4102H37.4414V37H34.4883V22.4102H32.168ZM41.8008 21.0391V18.1914H44.1211V12.1094H47.1094V18.1914H49.3594V21.0742H47.1094V31.1641C47.1094 32.8281 47.7891 33.7539 49.1484 33.9414C49.4062 33.9883 49.6641 34.0117 49.9219 34.0117H50.4141L51.082 37H49.8164C46.9336 36.9766 45.1641 35.8984 44.5078 33.7656C44.2734 32.9688 44.1562 31.9844 44.1562 30.8125L44.1211 21.0391H41.8008ZM52.6641 37V12.3906H55.7227V23.1133H58.8867V26.1016H55.7227V37H52.6641ZM60.6445 26.1016V23.1133H63.7734V12.3906H66.8672V37H63.7734V26.1016H60.6445ZM69.6094 31.7969V23.1133C69.6094 22.0117 70.1016 20.9336 71.0859 19.8789C72.3047 18.6133 73.8281 17.9805 75.6562 17.9805V20.8281C74.2734 20.8281 73.3125 21.4023 72.7734 22.5508C72.6094 22.9023 72.5273 23.2539 72.5273 23.6055V31.3398C72.5273 32.207 72.9258 32.9453 73.7227 33.5547C74.2852 33.9766 74.9297 34.1875 75.6562 34.1875V37.0352C73.4297 37.0352 71.707 36.1328 70.4883 34.3281C69.9023 33.4375 69.6094 32.5938 69.6094 31.7969ZM77.168 37.0352V34.1875C78.4102 34.1875 79.3008 33.625 79.8398 32.5C80.0273 32.125 80.1211 31.7617 80.1211 31.4102V23.6055C80.1211 22.6445 79.7109 21.8828 78.8906 21.3203C78.375 20.9922 77.7891 20.8281 77.1328 20.8281V17.9805C79.2891 17.9805 80.9531 18.8594 82.125 20.6172C82.7109 21.4844 83.0039 22.3164 83.0039 23.1133V31.7969C83.0039 32.9453 82.5117 34.0586 81.5273 35.1367C80.3789 36.3789 78.9258 37.0117 77.168 37.0352ZM85.6758 31.9375V18.0156H88.6641V31.5859C88.6641 32.4297 89.0859 33.1328 89.9297 33.6953C90.4922 34.0469 91.1133 34.2227 91.793 34.2227V37.1758C89.543 37.1758 87.8086 36.2969 86.5898 34.5391C85.9805 33.6484 85.6758 32.7812 85.6758 31.9375ZM93.3398 37.1758V34.2227C94.6055 34.2227 95.5312 33.7188 96.1172 32.7109C96.3281 32.3359 96.4336 31.9609 96.4336 31.5859V18.0156H99.4219V31.9375C99.4219 33.0391 98.918 34.1289 97.9102 35.207C96.6914 36.4961 95.168 37.1523 93.3398 37.1758ZM101.461 32.0078L104.238 31.4805C104.238 32.5352 104.789 33.3672 105.891 33.9766C106.43 34.2344 106.945 34.375 107.438 34.3984V37.1758C105.164 37.1758 103.465 36.3555 102.34 34.7148C101.754 33.8477 101.461 32.9453 101.461 32.0078ZM101.637 23.3594C101.637 21.2266 102.609 19.6445 104.555 18.6133C105.492 18.1211 106.43 17.875 107.367 17.875V20.6172C106.289 20.6172 105.457 21.0625 104.871 21.9531C104.566 22.3984 104.414 22.8672 104.414 23.3594C104.414 24.1094 105 24.7188 106.172 25.1875C107.062 25.5625 108.785 26.0547 111.34 26.6641C112.934 26.9922 114.07 27.7773 114.75 29.0195C115.102 29.6758 115.277 30.4141 115.277 31.2344C115.277 33.4844 114.375 35.1484 112.57 36.2266C111.516 36.8594 110.309 37.1758 108.949 37.1758V34.3984C110.027 34.3984 110.93 34.0234 111.656 33.2734C112.172 32.7344 112.43 32.1016 112.43 31.375C112.43 30.4375 111.504 29.6875 109.652 29.125C109.184 28.9844 108.434 28.7852 107.402 28.5273C106.301 28.2695 105.504 28.0586 105.012 27.8945C103.23 27.1914 102.152 26.125 101.777 24.6953C101.684 24.2734 101.637 23.8281 101.637 23.3594ZM108.914 20.6523V17.875C110.93 17.875 112.559 18.625 113.801 20.125C114.574 21.0859 114.961 22.0938 114.961 23.1484L112.184 23.6055C112.184 22.3164 111.48 21.4141 110.074 20.8984C109.652 20.7344 109.266 20.6523 108.914 20.6523ZM117.352 31.7969V23.0781C117.375 22 117.891 20.9336 118.898 19.8789C120.117 18.6367 121.594 18.0039 123.328 17.9805V20.7578C122.203 20.7578 121.324 21.25 120.691 22.2344C120.434 22.6562 120.305 23.043 120.305 23.3945V25.7852H128.18V23.3945C128.18 22.3398 127.641 21.5664 126.562 21.0742C126.07 20.8398 125.566 20.7227 125.051 20.7227V17.9805C126.668 17.9805 128.109 18.5547 129.375 19.7031C130.43 20.7109 130.969 21.8242 130.992 23.043V28.6328H120.305V31.7969C120.305 32.4531 120.68 33.0625 121.43 33.625C122.039 34.0469 122.684 34.2578 123.363 34.2578V37C121.23 37 119.555 36.1328 118.336 34.3984C117.68 33.4844 117.352 32.6172 117.352 31.7969ZM125.051 37V34.2227C126.457 34.2227 127.512 33.6133 128.215 32.3945C128.355 32.1367 128.461 31.8906 128.531 31.6562L131.027 32.5703C130.605 34.1875 129.645 35.4062 128.145 36.2266C127.184 36.7422 126.152 37 125.051 37Z" fill="white"/>
<path d="M0.26 62L3.02 58.34L0.43 54.9H1.25L3.61 58.06H4.58V54.9H5.27V58.06H6.23L8.6 54.9H9.42L6.82 58.34L9.58 62H8.77L6.25 58.7H5.27V62H4.58V58.7H3.59L1.07 62H0.26ZM11.9835 62V54.9H12.6735V61.04L17.0735 54.9H17.7235V62H17.0335V55.97L12.6835 62H11.9835ZM25.7812 55.52H23.2512V62H22.5512V55.52H20.0212V54.9H25.7812V55.52ZM32.8447 62V55.52H29.9447L29.9047 57.02C29.8714 58 29.8014 58.8133 29.6947 59.46C29.588 60.1067 29.438 60.6167 29.2447 60.99C29.0514 61.3567 28.8147 61.62 28.5347 61.78C28.2547 61.9333 27.9214 62.01 27.5347 62.01V61.39C27.7947 61.39 28.0247 61.3233 28.2247 61.19C28.4247 61.0567 28.5947 60.8233 28.7347 60.49C28.8747 60.1567 28.9847 59.6967 29.0647 59.11C29.1514 58.5167 29.208 57.7667 29.2347 56.86L29.2947 54.9H33.5347V62H32.8447ZM39.3703 62.05C38.8703 62.05 38.417 61.95 38.0103 61.75C37.6036 61.55 37.2536 61.28 36.9603 60.94C36.667 60.5933 36.4403 60.2067 36.2803 59.78C36.1203 59.3467 36.0403 58.9033 36.0403 58.45C36.0403 57.9767 36.1236 57.5267 36.2903 57.1C36.457 56.6667 36.6903 56.2833 36.9903 55.95C37.297 55.61 37.6536 55.3433 38.0603 55.15C38.467 54.95 38.907 54.85 39.3803 54.85C39.8803 54.85 40.3336 54.9533 40.7403 55.16C41.147 55.3667 41.4936 55.6433 41.7803 55.99C42.0736 56.3367 42.3003 56.7233 42.4603 57.15C42.6203 57.5767 42.7003 58.0133 42.7003 58.46C42.7003 58.9333 42.617 59.3867 42.4503 59.82C42.2836 60.2467 42.0503 60.63 41.7503 60.97C41.4503 61.3033 41.097 61.5667 40.6903 61.76C40.2836 61.9533 39.8436 62.05 39.3703 62.05ZM36.7403 58.45C36.7403 58.8367 36.8036 59.21 36.9303 59.57C37.057 59.9233 37.237 60.24 37.4703 60.52C37.7036 60.7933 37.9803 61.0133 38.3003 61.18C38.627 61.34 38.9836 61.42 39.3703 61.42C39.777 61.42 40.1403 61.3367 40.4603 61.17C40.787 60.9967 41.0636 60.77 41.2903 60.49C41.5236 60.2033 41.7003 59.8833 41.8203 59.53C41.9403 59.1767 42.0003 58.8167 42.0003 58.45C42.0003 58.0633 41.937 57.6933 41.8103 57.34C41.6836 56.9867 41.5003 56.67 41.2603 56.39C41.027 56.11 40.7503 55.89 40.4303 55.73C40.1103 55.57 39.757 55.49 39.3703 55.49C38.9703 55.49 38.607 55.5733 38.2803 55.74C37.9603 55.9067 37.6836 56.1333 37.4503 56.42C37.2236 56.7 37.047 57.0167 36.9203 57.37C36.8003 57.7233 36.7403 58.0833 36.7403 58.45ZM50.5601 60.17C50.5601 60.5233 50.4701 60.84 50.2901 61.12C50.1101 61.3933 49.8667 61.61 49.5601 61.77C49.2601 61.9233 48.9301 62 48.5701 62H45.2201V54.9H48.6401C48.9734 54.9 49.2601 54.99 49.5001 55.17C49.7467 55.3433 49.9334 55.57 50.0601 55.85C50.1934 56.1233 50.2601 56.41 50.2601 56.71C50.2601 57.0633 50.1701 57.39 49.9901 57.69C49.8101 57.99 49.5601 58.2133 49.2401 58.36C49.6467 58.48 49.9667 58.7033 50.2001 59.03C50.4401 59.3567 50.5601 59.7367 50.5601 60.17ZM49.8601 60.05C49.8601 59.81 49.8067 59.59 49.7001 59.39C49.5934 59.1833 49.4467 59.0167 49.2601 58.89C49.0801 58.7633 48.8734 58.7 48.6401 58.7H45.9201V61.39H48.5701C48.8101 61.39 49.0267 61.3267 49.2201 61.2C49.4134 61.0733 49.5667 60.91 49.6801 60.71C49.8001 60.5033 49.8601 60.2833 49.8601 60.05ZM45.9201 55.51V58.13H48.3601C48.5934 58.13 48.8001 58.07 48.9801 57.95C49.1601 57.8233 49.3034 57.66 49.4101 57.46C49.5167 57.26 49.5701 57.0467 49.5701 56.82C49.5701 56.58 49.5201 56.3633 49.4201 56.17C49.3201 55.97 49.1834 55.81 49.0101 55.69C48.8367 55.57 48.6401 55.51 48.4201 55.51H45.9201ZM53.1202 62V54.9H53.8102V61.04L58.2102 54.9H58.8602V62H58.1702V55.97L53.8202 62H53.1202ZM61.9179 62V54.9H62.6079V61.04L67.0079 54.9H67.6579V62H66.9679V55.97L62.6179 62H61.9179ZM64.7979 54.3C64.4712 54.3 64.1946 54.2533 63.9679 54.16C63.7479 54.06 63.5812 53.9267 63.4679 53.76C63.3546 53.5867 63.2946 53.4 63.2879 53.2H63.8379C63.8446 53.3733 63.9146 53.53 64.0479 53.67C64.1879 53.81 64.4379 53.88 64.7979 53.88C65.1446 53.88 65.3879 53.8167 65.5279 53.69C65.6679 53.5567 65.7412 53.3933 65.7479 53.2H66.2979C66.2912 53.4 66.2312 53.5867 66.1179 53.76C66.0046 53.9267 65.8379 54.06 65.6179 54.16C65.4046 54.2533 65.1312 54.3 64.7979 54.3ZM74.4244 62V54.9H75.1244V58.06H76.1944L78.6344 54.9H79.4444L76.7744 58.34L79.6144 62H78.7544L76.2144 58.7H75.1244V62H74.4244ZM84.4316 62.05C83.9316 62.05 83.4783 61.95 83.0716 61.75C82.665 61.55 82.315 61.28 82.0216 60.94C81.7283 60.5933 81.5016 60.2067 81.3416 59.78C81.1816 59.3467 81.1016 58.9033 81.1016 58.45C81.1016 57.9767 81.185 57.5267 81.3516 57.1C81.5183 56.6667 81.7516 56.2833 82.0516 55.95C82.3583 55.61 82.715 55.3433 83.1216 55.15C83.5283 54.95 83.9683 54.85 84.4416 54.85C84.9416 54.85 85.395 54.9533 85.8016 55.16C86.2083 55.3667 86.555 55.6433 86.8416 55.99C87.135 56.3367 87.3616 56.7233 87.5216 57.15C87.6816 57.5767 87.7616 58.0133 87.7616 58.46C87.7616 58.9333 87.6783 59.3867 87.5116 59.82C87.345 60.2467 87.1116 60.63 86.8116 60.97C86.5116 61.3033 86.1583 61.5667 85.7516 61.76C85.345 61.9533 84.905 62.05 84.4316 62.05ZM81.8016 58.45C81.8016 58.8367 81.865 59.21 81.9916 59.57C82.1183 59.9233 82.2983 60.24 82.5316 60.52C82.765 60.7933 83.0416 61.0133 83.3616 61.18C83.6883 61.34 84.045 61.42 84.4316 61.42C84.8383 61.42 85.2016 61.3367 85.5216 61.17C85.8483 60.9967 86.125 60.77 86.3516 60.49C86.585 60.2033 86.7616 59.8833 86.8816 59.53C87.0016 59.1767 87.0616 58.8167 87.0616 58.45C87.0616 58.0633 86.9983 57.6933 86.8716 57.34C86.745 56.9867 86.5616 56.67 86.3216 56.39C86.0883 56.11 85.8116 55.89 85.4916 55.73C85.1716 55.57 84.8183 55.49 84.4316 55.49C84.0316 55.49 83.6683 55.5733 83.3416 55.74C83.0216 55.9067 82.745 56.1333 82.5116 56.42C82.285 56.7 82.1083 57.0167 81.9816 57.37C81.8616 57.7233 81.8016 58.0833 81.8016 58.45ZM96.5714 62V56.22L94.0014 60.71H93.5614L90.9814 56.22V62H90.2814V54.9H91.0014L93.7714 59.76L96.5614 54.9H97.2714V62H96.5714ZM100.251 62V54.9H105.611V62H104.911V55.52H100.951V62H100.251ZM113.39 62V55.52H110.49L110.45 57.02C110.416 58 110.346 58.8133 110.24 59.46C110.133 60.1067 109.983 60.6167 109.79 60.99C109.596 61.3567 109.36 61.62 109.08 61.78C108.8 61.9333 108.466 62.01 108.08 62.01V61.39C108.34 61.39 108.57 61.3233 108.77 61.19C108.97 61.0567 109.14 60.8233 109.28 60.49C109.42 60.1567 109.53 59.6967 109.61 59.11C109.696 58.5167 109.753 57.7667 109.78 56.86L109.84 54.9H114.08V62H113.39ZM121.825 61.38V62H117.055V54.9H121.735V55.52H117.755V58.08H121.225V58.67H117.755V61.38H121.825ZM124.349 62V54.9H125.049V58.06H126.119L128.559 54.9H129.369L126.699 58.34L129.539 62H128.679L126.139 58.7H125.049V62H124.349ZM131.026 58.4C131.026 57.9667 131.1 57.5433 131.246 57.13C131.4 56.71 131.62 56.33 131.906 55.99C132.193 55.6433 132.546 55.37 132.966 55.17C133.386 54.9633 133.863 54.86 134.396 54.86C135.03 54.86 135.57 55.0067 136.016 55.3C136.47 55.5867 136.803 55.9567 137.016 56.41L136.466 56.75C136.313 56.4367 136.12 56.19 135.886 56.01C135.653 55.8233 135.403 55.69 135.136 55.61C134.876 55.53 134.616 55.49 134.356 55.49C133.93 55.49 133.553 55.5767 133.226 55.75C132.9 55.9167 132.623 56.1433 132.396 56.43C132.176 56.71 132.01 57.0267 131.896 57.38C131.783 57.7267 131.726 58.08 131.726 58.44C131.726 58.8333 131.793 59.21 131.926 59.57C132.06 59.93 132.246 60.25 132.486 60.53C132.726 60.8033 133.006 61.0233 133.326 61.19C133.653 61.35 134.006 61.43 134.386 61.43C134.653 61.43 134.926 61.3833 135.206 61.29C135.486 61.1967 135.746 61.0533 135.986 60.86C136.233 60.6667 136.43 60.4167 136.576 60.11L137.156 60.41C137.01 60.7633 136.783 61.0633 136.476 61.31C136.17 61.5567 135.826 61.7433 135.446 61.87C135.073 61.9967 134.706 62.06 134.346 62.06C133.86 62.06 133.413 61.9567 133.006 61.75C132.6 61.5367 132.246 61.2567 131.946 60.91C131.653 60.5567 131.426 60.1633 131.266 59.73C131.106 59.29 131.026 58.8467 131.026 58.4Z" fill="white"/>
</svg>
